<svg width="20" height="21" viewBox="0 0 20 21" fill="none" xmlns="http://www.w3.org/2000/svg">
<g clip-path="url(#clip0_197_19343)">
<path d="M0.554688 15.4996C0.554688 14.2722 1.54961 13.2773 2.77691 13.2773H4.99913C6.22643 13.2773 7.22135 14.2722 7.22135 15.4996V17.7218C7.22135 18.9491 6.22643 19.944 4.99913 19.944H2.77691C1.54961 19.944 0.554688 18.9491 0.554688 17.7218V15.4996Z" stroke="white" stroke-width="1.25" stroke-linecap="round"/>
<path d="M12.7773 15.4996C12.7773 14.2722 13.7722 13.2773 14.9996 13.2773H17.2218C18.4491 13.2773 19.444 14.2722 19.444 15.4996V17.7218C19.444 18.9491 18.4491 19.944 17.2218 19.944H14.9996C13.7722 19.944 12.7773 18.9491 12.7773 17.7218V15.4996Z" stroke="white" stroke-width="1.25" stroke-linecap="round"/>
<path d="M0.554688 3.27691C0.554688 2.04961 1.54961 1.05469 2.77691 1.05469H4.99913C6.22643 1.05469 7.22135 2.04961 7.22135 3.27691V5.49913C7.22135 6.72643 6.22643 7.72135 4.99913 7.72135H2.77691C1.54961 7.72135 0.554688 6.72643 0.554688 5.49913V3.27691Z" stroke="white" stroke-width="1.25" stroke-linecap="round"/>
<path d="M12.7773 3.27691C12.7773 2.04961 13.7722 1.05469 14.9996 1.05469H17.2218C18.4491 1.05469 19.444 2.04961 19.444 3.27691V5.49913C19.444 6.72643 18.4491 7.72135 17.2218 7.72135H14.9996C13.7722 7.72135 12.7773 6.72643 12.7773 5.49913V3.27691Z" stroke="white" stroke-width="1.25" stroke-linecap="round"/>
</g>
<defs>
<clipPath id="clip0_197_19343">
<rect width="20" height="20" fill="white" transform="translate(0 0.5)"/>
</clipPath>
</defs>
</svg>
