<svg width="22" height="19" viewBox="0 0 22 19" fill="none" xmlns="http://www.w3.org/2000/svg">
<path d="M14.1844 18.2901H3.1974C1.98381 18.2901 1 17.3064 1 16.0927V2.90834C1 1.69475 1.98381 0.710938 3.1974 0.710938H7.06755C7.95537 0.710938 8.75594 1.2452 9.09664 2.06505L9.22684 2.37825C9.56755 3.1981 10.3682 3.73236 11.256 3.73236H16.6565C17.7184 3.73236 18.5792 4.59319 18.5792 5.65508M3.85048 18.2901H16.8852C17.8835 18.2901 18.7563 17.6173 19.0103 16.652L20.9633 9.2308C21.1465 8.53412 20.6211 7.85248 19.9007 7.85248H5.4407C4.44249 7.85248 3.56969 8.52533 3.31565 9.49064L1.72543 15.5335C1.35876 16.9269 2.4097 18.2901 3.85048 18.2901Z" stroke="white" stroke-width="1.25" stroke-linecap="round"/>
</svg>
