<svg xmlns="http://www.w3.org/2000/svg" viewBox="0 0 64 64" xml:space="preserve">
    <g style="fill:#f60">
        <path d="M49.593 49.556a4.011 4.011 0 0 0 0-5.657L34.824 29.13a4.011 4.011 0 0 0-5.657 0 4.011 4.011 0 0 0 0 5.657l14.769 14.769a4.013 4.013 0 0 0 5.657 0z" style="fill:#f60" transform="matrix(1.12762 0 0 1.12294 -4.033 -13.667)"/>
        <path d="M14.241 49.556a4.011 4.011 0 0 1 0-5.657L29.01 29.13a4.011 4.011 0 0 1 5.657 0 4.011 4.011 0 0 1 0 5.657l-14.77 14.769a4.012 4.012 0 0 1-5.656 0z" style="fill:#f60" transform="matrix(1.12762 0 0 1.12294 -4.033 -13.667)"/>
    </g>
</svg>
