<svg xmlns="http://www.w3.org/2000/svg" viewBox="0 0 64 64" xml:space="preserve">
    <g style="fill:#a00">
        <path style="fill:#a00" d="M49.593 29.593a4.011 4.011 0 0 0 0-5.657L34.824 9.167a4.011 4.011 0 0 0-5.657 0 4.011 4.011 0 0 0 0 5.657l14.769 14.769a4.013 4.013 0 0 0 5.657 0z" transform="matrix(1.12762 0 0 1.12294 -3.621 10.997)"/>
        <path style="fill:#a00" d="M14.241 29.593a4.011 4.011 0 0 1 0-5.657L29.01 9.167a4.011 4.011 0 0 1 5.657 0 4.011 4.011 0 0 1 0 5.657l-14.77 14.769a4.012 4.012 0 0 1-5.656 0z" transform="matrix(1.12762 0 0 1.12294 -3.621 10.997)"/>
    </g>
    <g style="fill:#d40000">
        <path style="fill:#d40000" d="M49.593 49.556a4.011 4.011 0 0 0 0-5.657L34.824 29.13a4.011 4.011 0 0 0-5.657 0 4.011 4.011 0 0 0 0 5.657l14.769 14.769a4.013 4.013 0 0 0 5.657 0z" transform="matrix(1.12762 0 0 1.12294 -3.027 6.852)"/>
        <path style="fill:#d40000" d="M14.241 49.556a4.011 4.011 0 0 1 0-5.657L29.01 29.13a4.011 4.011 0 0 1 5.657 0 4.011 4.011 0 0 1 0 5.657l-14.77 14.769a4.012 4.012 0 0 1-5.656 0z" transform="matrix(1.12762 0 0 1.12294 -3.027 6.852)"/>
    </g>
    <g style="fill:maroon">
        <path style="fill:maroon" d="M49.593 29.593a4.011 4.011 0 0 0 0-5.657L34.824 9.167a4.011 4.011 0 0 0-5.657 0 4.011 4.011 0 0 0 0 5.657l14.769 14.769a4.013 4.013 0 0 0 5.657 0z" transform="matrix(1.12762 0 0 1.12294 -4.582 -8.665)"/>
        <path style="fill:maroon" d="M14.241 29.593a4.011 4.011 0 0 1 0-5.657L29.01 9.167a4.011 4.011 0 0 1 5.657 0 4.011 4.011 0 0 1 0 5.657l-14.77 14.769a4.012 4.012 0 0 1-5.656 0z" transform="matrix(1.12762 0 0 1.12294 -4.582 -8.665)"/>
    </g>
</svg>
